HIERARCHY
ROOT Hips
{
	OFFSET 0.000000 0.000000 0.000000
	CHANNELS 6 Xposition Yposition Zposition Xrotation Yrotation Zrotation
	JOINT C_ctrl
	{
		OFFSET 0.000000 35.040482 -0.000011
		CHANNELS 3 Xrotation Yrotation Zrotation
		JOINT Bip01
		{
			OFFSET -41.537640 41.789009 -0.000007
			CHANNELS 3 Xrotation Yrotation Zrotation
			JOINT Bip01_Pelvis
			{
				OFFSET -2.462887 0.000000 0.000000
				CHANNELS 3 Xrotation Yrotation Zrotation
				JOINT BN_Tail_01
				{
					OFFSET -11.399368 7.351341 -0.000013
					CHANNELS 3 Xrotation Yrotation Zrotation
					JOINT BN_Tail_02
					{
						OFFSET -11.365196 -0.343025 0.000012
						CHANNELS 3 Xrotation Yrotation Zrotation
						JOINT BN_Tail_03
						{
							OFFSET -15.076256 -0.454979 0.000017
							CHANNELS 3 Xrotation Yrotation Zrotation
							JOINT BN_Tail_04
							{
								OFFSET -17.395691 -0.525002 0.000016
								CHANNELS 3 Xrotation Yrotation Zrotation
								JOINT BN_Tail_05
								{
									OFFSET -16.699837 -0.504005 0.000016
									CHANNELS 3 Xrotation Yrotation Zrotation
									End Site
									{
										OFFSET 0.503998 -16.699829 0.000067
									}
								}
							}
						}
					}
				}
				JOINT Bip01_Spine
				{
					OFFSET 8.297798 5.916809 -0.000020
					CHANNELS 3 Xrotation Yrotation Zrotation
					JOINT Bip01_R_Thigh
					{
						OFFSET -8.297779 -5.916794 10.541781
						CHANNELS 3 Xrotation Yrotation Zrotation
						JOINT Bip01_R_Calf
						{
							OFFSET 5.631542 -22.906792 0.862690
							CHANNELS 3 Xrotation Yrotation Zrotation
							JOINT Bip01_R_HorseLink
							{
								OFFSET -16.984341 -19.231926 -3.555767
								CHANNELS 3 Xrotation Yrotation Zrotation
								JOINT Bip01_R_Foot
								{
									OFFSET 4.290367 -24.783146 0.578056
									CHANNELS 3 Xrotation Yrotation Zrotation
									JOINT Bip01_R_Toe0
									{
										OFFSET 3.561211 -5.815116 0.760802
										CHANNELS 3 Xrotation Yrotation Zrotation
										JOINT Bip01_R_Toe0Nub
										{
											OFFSET 16.135469 0.002017 1.534789
											CHANNELS 3 Xrotation Yrotation Zrotation
											End Site
											{
												OFFSET -0.000002 16.208284 -0.000056
											}
										}
									}
								}
							}
						}
					}
					JOINT Bip01_L_Thigh
					{
						OFFSET -8.297813 -5.916832 -10.541739
						CHANNELS 3 Xrotation Yrotation Zrotation
						JOINT Bip01_L_Calf
						{
							OFFSET 5.631535 -22.906792 -0.862625
							CHANNELS 3 Xrotation Yrotation Zrotation
							JOINT Bip01_L_HorseLink
							{
								OFFSET -16.984318 -19.231949 3.555875
								CHANNELS 3 Xrotation Yrotation Zrotation
								JOINT Bip01_L_Foot
								{
									OFFSET 4.290367 -24.783169 -0.577965
									CHANNELS 3 Xrotation Yrotation Zrotation
									JOINT Bip01_L_Toe0
									{
										OFFSET 3.561245 -5.815111 -0.760799
										CHANNELS 3 Xrotation Yrotation Zrotation
										JOINT Bip01_L_Toe0Nub
										{
											OFFSET 6.574303 -0.000005 -1.538561
											CHANNELS 3 Xrotation Yrotation Zrotation
											End Site
											{
												OFFSET 0.000004 -6.751935 0.000023
											}
										}
									}
								}
							}
						}
					}
					JOINT Bip01_Spine1
					{
						OFFSET 20.556803 -4.626213 -0.000025
						CHANNELS 3 Xrotation Yrotation Zrotation
						JOINT Saddle
						{
							OFFSET 17.608810 18.174690 -0.000143
							CHANNELS 3 Xrotation Yrotation Zrotation
							End Site
							{
								OFFSET -0.000063 -0.000061 -22.448387
							}
						}
						JOINT BN_center
						{
							OFFSET 10.743275 -13.417107 -0.172041
							CHANNELS 3 Xrotation Yrotation Zrotation
							End Site
							{
								OFFSET 22.434088 0.553078 -0.579614
							}
						}
						JOINT Bip01_Spine2
						{
							OFFSET 24.765072 -2.054115 -0.000032
							CHANNELS 3 Xrotation Yrotation Zrotation
							JOINT Handle
							{
								OFFSET 63.735676 16.430748 -16.052464
								CHANNELS 3 Xrotation Yrotation Zrotation
								JOINT IK_Chain01
								{
									OFFSET -4.713058 -6.020439 0.185448
									CHANNELS 3 Xrotation Yrotation Zrotation
									End Site
									{
										OFFSET -0.000023 -0.000023 -7.648071
									}
								}
							}
							JOINT BN_hair04_01
							{
								OFFSET 1.987491 16.256981 -2.049672
								CHANNELS 3 Xrotation Yrotation Zrotation
								JOINT BN_hair04_02
								{
									OFFSET -1.318762 -3.831451 -6.174704
									CHANNELS 3 Xrotation Yrotation Zrotation
									JOINT BN_hair04_03
									{
										OFFSET -0.827490 -5.886627 -5.656666
										CHANNELS 3 Xrotation Yrotation Zrotation
										End Site
										{
											OFFSET -2.658262 5.010620 -5.929780
										}
									}
								}
							}
							JOINT Bip01_Neck
							{
								OFFSET 25.574577 9.433014 -0.000084
								CHANNELS 3 Xrotation Yrotation Zrotation
								JOINT Bip01_R_Clavicle
								{
									OFFSET -16.535652 0.011192 6.705692
									CHANNELS 3 Xrotation Yrotation Zrotation
									JOINT Bip01_R_UpperArm
									{
										OFFSET 20.272621 -12.959984 2.510816
										CHANNELS 3 Xrotation Yrotation Zrotation
										JOINT Bip01_R_Forearm
										{
											OFFSET -13.633509 -15.503704 -0.653585
											CHANNELS 3 Xrotation Yrotation Zrotation
											JOINT Bip01_R_Hand
											{
												OFFSET 2.580030 -27.804676 -1.136415
												CHANNELS 3 Xrotation Yrotation Zrotation
												JOINT Bip01_R_Finger0
												{
													OFFSET -0.281744 -19.659061 -0.398649
													CHANNELS 3 Xrotation Yrotation Zrotation
													JOINT Bip01_Xtra02
													{
														OFFSET 4.152210 -5.712314 0.433813
														CHANNELS 3 Xrotation Yrotation Zrotation
														JOINT Bip01_Xtra02Nub
														{
															OFFSET 15.457960 0.041654 0.507982
															CHANNELS 3 Xrotation Yrotation Zrotation
															End Site
															{
																OFFSET -15.421730 -0.157725 -1.163459
															}
														}
													}
													JOINT Bip01_R_Finger0Nub
													{
														OFFSET 8.362326 -9.718440 -0.143142
														CHANNELS 3 Xrotation Yrotation Zrotation
														End Site
														{
															OFFSET -1.213036 -0.198171 9.872291
														}
													}
												}
											}
										}
									}
								}
								JOINT Bip01_L_Clavicle
								{
									OFFSET -16.535673 0.011162 -6.705583
									CHANNELS 3 Xrotation Yrotation Zrotation
									JOINT Bip01_L_UpperArm
									{
										OFFSET 20.272615 -12.959999 -2.510836
										CHANNELS 3 Xrotation Yrotation Zrotation
										JOINT Bip01_L_Forearm
										{
											OFFSET -13.633495 -15.503681 0.653678
											CHANNELS 3 Xrotation Yrotation Zrotation
											JOINT Bip01_L_Hand
											{
												OFFSET 2.579988 -27.804686 1.136487
												CHANNELS 3 Xrotation Yrotation Zrotation
												JOINT Bip01_L_Finger0
												{
													OFFSET -0.281765 -19.659058 0.398696
													CHANNELS 3 Xrotation Yrotation Zrotation
													JOINT Bip01_Xtra01
													{
														OFFSET 4.083549 -5.738758 -0.666714
														CHANNELS 3 Xrotation Yrotation Zrotation
														JOINT Bip01_Xtra01Nub
														{
															OFFSET 6.758158 -0.395525 -0.023239
															CHANNELS 3 Xrotation Yrotation Zrotation
															End Site
															{
																OFFSET 6.764923 -0.254147 -0.029908
															}
														}
													}
													JOINT Bip01_L_Finger0Nub
													{
														OFFSET -0.012636 -9.629153 0.045740
														CHANNELS 3 Xrotation Yrotation Zrotation
														End Site
														{
															OFFSET 0.988407 0.004791 8.293357
														}
													}
												}
											}
										}
									}
								}
								JOINT BN_hair03_01
								{
									OFFSET -5.894140 16.270622 -2.498433
									CHANNELS 3 Xrotation Yrotation Zrotation
									JOINT BN_hair03_02
									{
										OFFSET -0.189278 -7.800507 -6.219162
										CHANNELS 3 Xrotation Yrotation Zrotation
										JOINT BN_hair03_03
										{
											OFFSET 0.612345 -10.844475 -3.370718
											CHANNELS 3 Xrotation Yrotation Zrotation
											End Site
											{
												OFFSET -2.273296 2.862007 -10.769416
											}
										}
									}
								}
								JOINT Bip01_Neck1
								{
									OFFSET 9.383755 11.908699 -0.000007
									CHANNELS 3 Xrotation Yrotation Zrotation
									JOINT BN_hair02_01
									{
										OFFSET 9.126320 18.808022 -1.420810
										CHANNELS 3 Xrotation Yrotation Zrotation
										JOINT BN_hair02_02
										{
											OFFSET 0.393478 -5.181091 -5.248574
											CHANNELS 3 Xrotation Yrotation Zrotation
											JOINT BN_hair02_03
											{
												OFFSET 0.762280 -8.167076 -0.230047
												CHANNELS 3 Xrotation Yrotation Zrotation
												End Site
												{
													OFFSET -0.025837 -1.251419 -8.109770
												}
											}
										}
									}
									JOINT Bip01_Head
									{
										OFFSET 14.266129 10.475403 -0.000008
										CHANNELS 3 Xrotation Yrotation Zrotation
										JOINT BN_Reins_01
										{
											OFFSET 18.547455 -15.740112 -0.000035
											CHANNELS 3 Xrotation Yrotation Zrotation
											JOINT BN_Reins_02
											{
												OFFSET -5.372810 -5.884506 0.000028
												CHANNELS 3 Xrotation Yrotation Zrotation
												JOINT BN_Reins_03
												{
													OFFSET -6.395866 -15.947449 0.000070
													CHANNELS 3 Xrotation Yrotation Zrotation
													JOINT BN_Halter_R_01
													{
														OFFSET -1.234055 -3.096100 7.096737
														CHANNELS 3 Xrotation Yrotation Zrotation
														End Site
														{
															OFFSET 10.514435 -4.176861 -0.000004
														}
													}
													JOINT BN_Halter_L_01
													{
														OFFSET -1.234062 -3.096146 -7.096726
														CHANNELS 3 Xrotation Yrotation Zrotation
														End Site
														{
															OFFSET -10.514435 4.176865 -0.000000
														}
													}
													JOINT BN_Reins_04
													{
														OFFSET -6.737644 -16.971684 0.000074
														CHANNELS 3 Xrotation Yrotation Zrotation
														JOINT BN_Halter_R_02
														{
															OFFSET -4.688869 -11.781956 7.096771
															CHANNELS 3 Xrotation Yrotation Zrotation
															End Site
															{
																OFFSET 14.669624 -5.827511 -0.000006
															}
														}
														JOINT BN_Halter_L_02
														{
															OFFSET -4.688892 -11.782017 -7.096693
															CHANNELS 3 Xrotation Yrotation Zrotation
															End Site
															{
																OFFSET -14.669624 5.827507 -0.000002
															}
														}
														JOINT BN_Reins_05
														{
															OFFSET -6.822578 -16.971161 0.000074
															CHANNELS 3 Xrotation Yrotation Zrotation
															JOINT BN_Reins_06
															{
																OFFSET -6.140354 -15.095148 0.000066
																CHANNELS 3 Xrotation Yrotation Zrotation
																End Site
																{
																	OFFSET -15.095150 6.140352 -0.000002
																}
															}
														}
													}
												}
											}
										}
										JOINT BN_hair01_01
										{
											OFFSET 8.957344 8.870956 0.112121
											CHANNELS 3 Xrotation Yrotation Zrotation
											JOINT BN_hair01_02
											{
												OFFSET 6.002075 -2.962952 -3.121264
												CHANNELS 3 Xrotation Yrotation Zrotation
												End Site
												{
													OFFSET 5.917702 3.813591 -2.232396
												}
											}
										}
										JOINT BN_Eyebrow_R
										{
											OFFSET 11.795959 -0.430496 4.449781
											CHANNELS 3 Xrotation Yrotation Zrotation
											JOINT Bip01_Xtra06Nub
											{
												OFFSET 2.936661 -0.262573 3.246701
												CHANNELS 3 Xrotation Yrotation Zrotation
												End Site
												{
													OFFSET 2.768745 0.208199 3.394807
												}
											}
										}
										JOINT BN_Eyebrow_L
										{
											OFFSET 11.586395 -0.445618 -4.441728
											CHANNELS 3 Xrotation Yrotation Zrotation
											JOINT Bip01_Xtra05Nub
											{
												OFFSET 3.244698 -0.349442 -4.416700
												CHANNELS 3 Xrotation Yrotation Zrotation
												End Site
												{
													OFFSET 3.053162 0.072495 -4.564033
												}
											}
										}
										JOINT Bip01_R_Ear_01
										{
											OFFSET 7.142960 7.567184 4.311657
											CHANNELS 3 Xrotation Yrotation Zrotation
											JOINT Bip01_Xtra04Nub
											{
												OFFSET 9.464531 9.264214 1.682953
												CHANNELS 3 Xrotation Yrotation Zrotation
												End Site
												{
													OFFSET 8.448181 10.159340 1.910823
												}
											}
										}
										JOINT Bip01__L_Ear_01
										{
											OFFSET 7.214943 7.717056 -4.356771
											CHANNELS 3 Xrotation Yrotation Zrotation
											JOINT Bip01_Xtra03Nub
											{
												OFFSET 9.230225 8.944366 -2.322746
												CHANNELS 3 Xrotation Yrotation Zrotation
												End Site
												{
													OFFSET 8.170288 9.841324 -2.643566
												}
											}
										}
										JOINT Bip01_Jaw
										{
											OFFSET 9.196068 -4.110695 -0.000013
											CHANNELS 3 Xrotation Yrotation Zrotation
											JOINT Bip01_Ponytail1Nub
											{
												OFFSET 10.976463 -21.082108 -0.000053
												CHANNELS 3 Xrotation Yrotation Zrotation
												End Site
												{
													OFFSET 11.247093 -20.938980 0.000113
												}
											}
										}
										JOINT Bip01_HeadNub
										{
											OFFSET 29.954575 -18.249489 -0.000063
											CHANNELS 3 Xrotation Yrotation Zrotation
											End Site
											{
												OFFSET -9.198448 -13.366348 0.000168
											}
										}
									}
								}
							}
						}
					}
				}
			}
		}
	}
}
MOTION
Frames: 4
Frame Time: 0.033333
0.000000 0.000000 0.000000 0.000008 0.000000 -0.000000 -0.000000 0.000000 -0.000000 0.000072 -0.000013 -3.726100 -0.731651 -2.605314 -1.546433 -0.829324 9.705995 -4.793978 -0.627086 1.171376 26.420876 0.429111 -13.937248 21.972727 3.972032 -16.254412 12.203376 0.029387 -0.991024 -0.052191 1.742196 2.548194 9.184865 5.261102 9.006433 -18.862213 6.769143 -1.798802 -36.005117 -1.069552 -0.109744 5.447303 7.258775 -6.768612 -52.202460 0.319109 0.121192 -1.533688 0.000005 -0.000236 -0.000022 -6.327378 -10.640639 -5.683193 -6.786519 1.809869 -36.108454 6.372766 2.397894 34.932026 -8.178239 12.693071 -82.729533 -0.462769 -0.173829 -2.218643 0.008492 0.000135 0.038654 -1.951188 0.439270 -10.769519 0.917524 -0.020781 6.784383 1.155750 -0.143355 -1.006143 -0.000003 -0.000003 -2.645284 0.000078 -0.000112 -0.000056 -0.000052 -0.014931 0.015042 1.881440 1.572133 1.462558 6.612637 11.512017 -15.509087 4.975557 5.266133 -6.968489 1.064119 -0.006192 15.666572 -1.875782 -2.465493 -33.550521 0.817344 3.258753 20.400308 0.155150 0.767088 -19.171897 4.007556 3.487834 3.791886 -8.960795 -1.300534 16.123795 -1.353262 3.861792 5.945719 -0.802217 0.160632 -0.479902 -0.804178 0.123491 -0.482672 -0.658303 2.223316 -27.859763 -0.129311 -2.961129 5.094754 -0.053157 -0.426650 -10.497008 -3.769605 -1.154311 -52.740399 -5.648625 0.007488 -61.126027 -1.098533 6.839202 2.000703 0.028231 0.072054 2.451884 -0.000913 0.100619 2.451960 4.851778 -0.312049 0.401833 -1.389560 3.407426 -10.646846 -0.416208 1.957077 -6.728407 -0.000260 -0.000550 -1.687333 1.084166 0.107258 -0.021810 3.664531 0.105898 -6.867851 5.157828 0.134664 -1.519685 -0.090021 0.374926 -14.853732 -0.000005 -0.000240 -21.499118 0.060952 -0.478573 6.209346 -0.000112 -0.000112 -37.762156 -0.000402 0.000408 1.320784 5.519347 -2.042304 1.418893 -0.000185 -0.000144 -58.715735 -23.900627 -11.937206 -2.553857 34.947039 16.675478 -5.200984 -0.000102 -0.000121 -39.786856 -0.000357 -0.000459 0.006388 2.392948 6.620290 -0.300161 2.391430 -0.587842 5.311690 0.000059 -0.000074 0.000050 0.014700 -0.017593 11.778862 0.000047 -0.000042 0.000058 -0.019774 0.028199 11.786639 0.885431 1.335095 -11.105647 0.030252 0.009803 11.760349 -1.290225 -1.929243 -11.270292 -0.030205 -0.008511 11.761729 -0.000019 0.000024 -0.055757 0.002966 0.032507 11.757084 0.000123 0.000557 11.757103 
0.000000 0.000000 0.000000 0.000008 0.000000 -0.000000 -0.000000 0.000000 -0.000000 0.000071 -0.000013 -3.368696 -0.553903 -3.236399 -1.172666 -0.882766 9.122325 -4.423310 -1.444180 3.214911 22.472489 0.317249 -10.396825 24.822384 3.949129 -14.633935 13.553998 0.069413 -1.505477 -1.260295 1.612814 3.158408 8.438694 4.313620 8.308118 -15.870848 7.843734 -2.585353 -42.710436 -3.673268 -0.828575 19.142799 8.026563 -6.815427 -57.980622 0.290904 0.110747 -1.398757 0.000005 -0.000236 -0.000024 -5.910651 -10.593834 -2.181055 -6.546876 1.658690 -34.680938 7.305024 3.212548 41.156517 -8.113894 11.777327 -81.273159 -0.468007 -0.173623 -2.243548 0.008492 0.000134 0.038654 -2.060144 0.480302 -12.313959 0.935098 -0.008897 8.178481 1.098786 -0.143955 -1.419746 0.102496 0.004192 -2.321817 0.000533 -0.003683 -2.122436 -0.000045 -0.040941 0.015041 1.881409 1.572121 1.462537 6.612637 11.512014 -15.509083 4.975555 5.266139 -6.968497 1.250323 0.094272 17.616424 -2.483161 -2.987349 -39.415905 1.299663 4.534642 21.849727 0.160598 0.781129 -19.539146 2.682481 2.896448 6.360828 -7.979198 -0.173212 18.348540 -0.528416 5.186852 2.033113 -0.802245 0.160632 -0.479905 -0.804178 0.123493 -0.482672 -0.916715 2.009047 -28.454324 -0.030853 -2.637132 5.326313 -0.027539 -0.290550 -7.120073 -3.863475 -1.451795 -64.408274 -5.543297 -0.577146 -61.528735 -0.888723 6.141695 1.519873 0.028259 0.072054 2.451884 -0.000902 0.100617 2.451963 4.716922 -0.249859 1.143052 -1.261042 3.201740 -10.046948 -0.367327 1.866312 -6.432678 0.122690 0.182743 -1.067519 1.390360 0.167175 0.839725 3.790083 0.088502 -5.928254 4.816354 -0.106548 -2.876538 -0.229746 0.382483 -14.770813 -0.000008 -0.000244 -23.002064 0.104742 -0.725700 7.523678 -0.000114 -0.000113 -38.472086 -0.000008 -0.000004 3.452275 5.413566 -1.831602 3.027728 -0.000190 -0.000144 -59.819405 -23.900625 -11.937204 -2.553855 34.947042 16.675478 -5.200984 -0.000105 -0.000122 -40.479338 -0.000357 -0.000459 0.006386 2.062256 5.785282 -1.080023 1.183865 -0.597247 3.380516 0.000059 -0.000071 0.000050 0.014718 -0.017592 11.778887 0.000048 -0.000042 0.000058 -0.019780 0.028195 11.786647 0.330869 1.560336 -10.188122 0.030264 0.009827 11.760348 -0.821677 -1.950245 -10.077387 -0.030206 -0.008514 11.761733 -0.000022 0.000020 -0.586242 0.002964 0.032510 11.757086 0.000123 0.000557 11.757104 
0.000000 0.000000 0.000000 0.000008 0.000000 -0.000000 -0.000000 0.000000 -0.000000 0.000072 0.000002 -2.638795 -0.281313 -4.011622 -1.190699 -0.929820 8.518974 -4.041299 -1.981865 5.383868 18.512832 0.212714 -7.013601 27.610562 3.865742 -13.044744 14.937222 0.098022 -2.010666 -2.444909 1.280870 3.931855 8.139450 3.628712 7.302933 -13.421021 8.609548 -3.278104 -47.900195 -6.588096 -2.570535 36.320730 9.029122 -7.192645 -65.832628 0.236535 0.077925 -1.139508 0.000005 -0.000236 -0.000024 -5.580806 -10.474421 0.955848 -5.954897 1.319450 -31.240647 8.342379 4.370097 48.960063 -8.232564 9.790285 -76.184866 -0.482087 -0.173059 -2.310087 0.008492 0.000135 0.038652 -1.981581 0.463530 -13.938843 0.952023 0.003160 9.545495 1.042931 -0.144105 -1.825314 0.251558 -0.009976 -2.300731 0.000063 -0.000141 -5.106812 -0.000038 -0.066950 0.015041 1.881407 1.572122 1.462538 6.612637 11.512017 -15.509090 4.975550 5.266139 -6.968498 1.455565 0.218393 18.452714 -3.078763 -3.463667 -43.719891 1.292060 6.082327 21.623354 0.107500 0.630707 -15.648523 2.203385 2.088753 7.654204 -6.527018 1.949105 17.626367 -0.124140 4.772379 -0.531347 -0.802274 0.160631 -0.479885 -0.804178 0.123493 -0.482673 -1.243729 1.788518 -28.031238 -0.112197 -2.489689 6.084998 -0.011237 -0.165650 -4.048835 -4.074597 -1.082236 -75.540840 -5.410918 -1.182168 -61.559006 -0.708558 5.350409 0.979858 0.028286 0.072054 2.451884 -0.000936 0.100618 2.451910 4.583931 -0.190577 1.870024 -0.982216 2.760489 -8.737017 -0.318949 1.777554 -6.142630 0.290503 0.416829 -0.095319 1.697739 0.235767 1.683505 4.388720 0.134387 -5.635339 4.692079 -0.034947 -2.330387 -0.535100 0.521840 -13.884953 -0.000026 -0.000277 -26.624467 0.205025 -1.126333 10.412462 -0.000116 -0.000114 -38.842780 0.000001 0.000009 8.359825 7.895236 -2.106362 6.821117 -0.000192 -0.000145 -60.400743 -23.900620 -11.937204 -2.553852 34.947039 16.675478 -5.200977 -0.000106 -0.000123 -40.840170 -0.000357 -0.000459 0.006388 1.717214 4.971043 -1.811805 0.208480 -0.433492 1.483579 0.000060 -0.000071 0.000050 0.014735 -0.017600 11.778909 0.000048 -0.000045 0.000057 -0.019785 0.028191 11.786656 -0.258181 1.831238 -9.435691 0.030276 0.009850 11.760348 -0.347983 -2.011635 -9.065067 -0.030207 -0.008520 11.761728 -0.000025 0.000015 -1.102384 0.002958 0.032517 11.757084 0.000123 0.000557 11.757106 
0.000000 0.000000 0.000000 0.000008 0.000000 -0.000000 -0.000000 0.000000 -0.000000 0.000071 -0.000014 -1.765261 -0.012273 -4.814171 -1.369190 -1.011582 7.009480 -3.088261 -2.194964 9.471281 11.381994 0.171207 -5.655245 30.955818 4.018281 -11.128398 18.270158 0.116365 -2.521337 -3.641410 0.881474 4.741269 8.066871 3.265183 7.041260 -9.996562 9.061444 -3.751865 -51.186394 -8.302990 -4.319801 48.640912 9.555708 -7.745312 -69.169695 0.210230 0.088413 -1.011515 0.000005 -0.000237 -0.000023 -5.276767 -10.315647 3.906986 -5.134844 0.923016 -26.642404 9.185506 5.608567 56.472438 -8.531155 7.246512 -69.118011 -0.496319 -0.172471 -2.377303 0.008492 0.000135 0.038656 -1.791442 0.411197 -15.369920 0.846807 0.020456 10.118910 0.570043 -0.118393 -2.724293 0.411048 -0.030500 -2.499585 0.000054 -0.000159 -8.541604 -0.000038 -0.092960 0.015043 1.881405 1.572122 1.462537 6.612638 11.512012 -15.509087 4.975549 5.266139 -6.968496 1.640444 0.344426 18.669255 -3.461275 -3.713465 -45.511343 1.297888 6.947554 23.402608 0.110034 0.638728 -15.853564 1.967569 1.661398 4.468427 -4.193690 4.100941 8.355696 -2.064795 -2.819321 5.483897 -0.802327 0.160632 -0.479911 -0.804178 0.123491 -0.482675 -1.567263 1.548525 -26.979578 -0.269933 -2.402806 7.160232 -0.001375 -0.034326 -0.837788 -4.215699 -0.336426 -85.832890 -5.242487 -1.794119 -61.197983 -0.522741 4.608743 0.474012 0.028342 0.072054 2.451884 -0.000936 0.100618 2.451909 4.293548 -0.127489 2.756749 -0.687353 2.300557 -7.338137 -0.172170 1.514586 -5.278127 0.463137 0.658989 1.045039 2.240311 0.345841 2.516964 5.737975 0.257354 -5.636485 4.683423 0.175421 -0.953223 -0.898300 0.728028 -12.901887 -0.000051 -0.000319 -31.350432 0.387878 -1.558529 14.447542 -0.000117 -0.000114 -39.089483 0.000006 0.000032 14.216724 11.576774 -2.136862 11.349251 -0.000194 -0.000145 -60.787994 -23.900627 -11.937205 -2.553854 34.947042 16.675482 -5.201013 -0.000107 -0.000124 -41.078950 -0.000357 -0.000459 0.006390 1.384229 3.983862 -1.463260 -0.318406 -0.677199 1.376776 0.000061 -0.000070 0.000051 0.014768 -0.017578 11.778952 0.000047 -0.000043 0.000060 -0.019794 0.028193 11.786672 -0.856704 2.096974 -8.672868 0.030303 0.009898 11.760355 0.131433 -2.065187 -8.042198 -0.030214 -0.008531 11.761727 -0.000027 0.000011 -1.595383 0.002948 0.032529 11.757081 0.000123 0.000557 11.757110 
